# xmcd
#
# Track frame offsets: 
#        150
#        16568
#        35960
#        60440
#        81232
#        109152
#        134485
#        150804
#        174122
#        187607
#        206940
#        224428
#
# Disc length: 3190 seconds
#
# Revision: 0
# Processed by: cddbd v1.5.2PL0 Copyright (c) Steve Scherf et al.
# Submitted via: ExactAudioCopyFreeDBPlugin 1.0
#
DISCID=960c740c
DTITLE=Mike Barnett - Portraits in Fiddles
DYEAR=2017
DGENRE=Bluegrass
TTITLE0=Old Barnes
TTITLE1=Mary and the Soldier
TTITLE2=Hangman's Reel
TTITLE3=Mom and Dad's Waltz
TTITLE4=Waiting on Vassar
TTITLE5=Bow Wow
TTITLE6=Dixie Hoedown
TTITLE7=Okeechobee Wind
TTITLE8=Fiddle Patch
TTITLE9=Angel's Waltz
TTITLE10=Fox Chase
TTITLE11=Tennessee Waltz
EXTD=
EXTT0=
EXTT1=
EXTT2=
EXTT3=
EXTT4=
EXTT5=
EXTT6=
EXTT7=
EXTT8=
EXTT9=
EXTT10=
EXTT11=
PLAYORDER=
